<svg width="492" height="116" viewBox="0 0 492 116" fill="none" xmlns="http://www.w3.org/2000/svg">
<path d="M484.142 75.6465C489.053 71.0366 491.633 64.1787 491.633 55.8258C491.633 47.6026 489.266 40.8226 484.786 36.2282C480.243 31.5767 473.479 29.1211 465.235 29.1211C448.145 29.1211 437.528 39.2963 437.528 55.67C437.528 72.7446 447.148 82.5355 463.916 82.5355C472.373 82.5303 479.361 80.1475 484.142 75.6465ZM443.057 55.5973C443.057 49.4403 445.175 43.6675 449.033 39.3586C453.03 34.8888 458.595 32.4072 464.705 32.4072C470.691 32.4072 476.173 34.9407 480.155 39.5351C483.893 43.8544 486.037 49.7622 486.037 55.7428C486.037 62.0347 483.919 67.8854 480.072 72.2254C476.059 76.7523 470.411 79.2391 464.171 79.2391C458.226 79.2391 452.781 76.6278 448.84 71.8932C445.154 67.4909 443.057 61.5415 443.057 55.5973Z" fill="#231F20"/>
<path d="M198.557 33.9156C198.007 35.2601 189.067 56.9292 184.057 69.0615L180.953 76.5839L177.957 69.321C172.979 57.2562 163.909 35.2706 163.354 33.9208C161.739 30.0117 159.782 30.0117 154.586 30.0117H154.394V81.6506H159.772V39.9948L159.658 38.1518L160.452 40.0726L178.295 81.6559H183.637L183.73 81.4379L201.464 40.0726L202.253 38.209L202.149 40.0156V81.6559H207.522V30.0169H207.341C202.129 30.0066 200.182 30.0064 198.557 33.9156Z" fill="#231F20"/>
<path d="M284.378 69.0667L277.152 60.314C277.92 60.0804 278.637 59.8364 279.239 59.5561C284.768 56.8773 287.82 52.0907 287.82 46.0479C287.82 40.7319 285.951 36.6151 282.24 33.8066C278.969 31.3251 274.369 30.0117 268.944 30.0117H255.737V81.6559H261.199V35.4264H270.294C278.761 35.4264 282.53 38.7125 282.53 46.0739C282.53 54.3698 275.148 56.4619 270.746 56.9707C269.588 57.1056 265.809 57.8377 265.809 61.5599V61.7468H265.99C267.802 61.7884 271.706 60.8019 273.175 62.759C274.224 64.1296 276.778 67.5612 279.093 70.5203C281.424 73.495 284.591 77.5442 287.592 79.8128C291.807 83.0056 294.029 83.2392 296.822 78.9719C291.745 77.0095 287.851 73.2666 284.378 69.0667Z" fill="#231F20"/>
<path d="M337.778 69.0667L330.542 60.314C331.305 60.0804 332.031 59.8364 332.623 59.5561C338.157 56.8773 341.21 52.0907 341.21 46.0479C341.21 40.7319 339.336 36.6151 335.629 33.8066C332.359 31.3251 327.764 30.0117 322.334 30.0117H309.127V81.6559H314.583V35.4264H323.679C332.151 35.4264 335.93 38.7125 335.93 46.0739C335.93 54.3698 328.543 56.4619 324.135 56.9707C322.988 57.1056 319.204 57.8377 319.204 61.5599V61.7468H319.39C321.202 61.7884 325.101 60.8019 326.58 62.759C327.619 64.1296 330.178 67.5612 332.494 70.5203C334.819 73.495 337.981 77.5442 340.987 79.8128C345.202 83.0056 347.419 83.2392 350.222 78.9719C345.14 77.0095 341.241 73.2666 337.778 69.0667Z" fill="#231F20"/>
<path d="M228.954 30.0117H228.767V81.6506H234.14V70.6605V37.2537C234.14 32.5035 233.917 30.0117 228.954 30.0117Z" fill="#231F20"/>
<path d="M365.085 30.0117H364.898V81.6506H370.272V70.6605V37.2537C370.272 32.5035 370.048 30.0117 365.085 30.0117Z" fill="#231F20"/>
<path d="M421.353 78.8028C416.592 79.135 414.261 79.5608 409.522 78.1903C400.369 75.5219 394.274 67.8126 394.274 56.0126C394.274 44.9393 399.627 35.5583 409.387 33.3987C413.477 32.4954 416.504 32.4591 420.854 33.0094C426.549 33.7206 427.453 33.5649 429.109 31.7376C424.364 29.7856 419.759 29.1211 414.5 29.1211C397.535 29.1211 388.59 38.6005 388.59 56.1371C388.59 73.6737 397.587 82.5355 414.817 82.5355C420.05 82.5355 424.442 82.0008 429.239 80.4278C428.247 78.019 424.691 78.5743 421.353 78.8028Z" fill="#231F20"/>
<path d="M261.797 110.337H264.73V114.137C264.32 114.262 263.391 114.542 261.932 114.542C260.66 114.542 259.357 114.236 258.526 113.281C257.581 112.164 257.348 110.337 257.348 109.252C257.348 108.048 257.597 106.371 258.718 105.12C259.398 104.362 260.406 104.045 261.62 104.045C263.365 104.045 264.325 104.86 264.517 106.054H266.454C266.417 105.556 266.365 104.808 265.607 104.003C264.377 102.757 262.83 102.633 261.818 102.633C261.179 102.633 259.513 102.695 258.251 103.547C255.806 105.177 255.489 108.203 255.489 109.486C255.489 111.297 256.029 113.088 257.291 114.371C258.199 115.295 259.58 115.964 261.942 115.964C264.133 115.964 265.768 115.435 266.516 115.191V108.857H261.807V110.337H261.797Z" fill="#231F20"/>
<path d="M278.116 109.179C278.501 109.075 279.072 108.888 279.627 108.348C280.188 107.782 280.53 106.983 280.53 106.074C280.53 105.041 280.063 104.06 279.113 103.458C278.163 102.855 276.819 102.855 276.164 102.855H271.575V115.694H273.34V109.895H275.578C277.727 109.895 278.168 110.435 278.386 112.293C278.506 113.269 278.693 114.837 278.973 115.694H280.873C280.375 114.271 280.25 113.171 280.068 111.66C279.887 110.051 279.331 109.506 278.116 109.179ZM276.107 108.384H273.299V104.351H276.107C276.813 104.351 278.661 104.351 278.661 106.432C278.661 107.491 278.038 107.953 277.794 108.099C277.312 108.384 276.299 108.384 276.107 108.384Z" fill="#231F20"/>
<path d="M290.71 102.508C289.521 102.508 287.761 102.799 286.427 104.237C285.026 105.742 284.776 107.891 284.776 109.345C284.776 112.865 286.199 115.985 290.575 115.985C295.138 115.985 296.509 112.548 296.509 109.142C296.509 104.782 294.266 102.508 290.71 102.508ZM293.472 113.296C292.725 114.194 291.681 114.469 290.627 114.469C289.615 114.469 288.509 114.204 287.782 113.296C286.889 112.195 286.64 110.648 286.64 109.246C286.64 106.614 287.481 104.003 290.731 104.003C293.664 104.003 294.619 106.209 294.619 109.116C294.619 109.994 294.521 112.018 293.472 113.296Z" fill="#231F20"/>
<path d="M309.869 110.726C309.869 111.655 309.869 114.37 306.406 114.37C305.513 114.37 304.267 114.173 303.468 113.109C303.198 112.735 302.902 112.169 302.902 110.804V102.855H301.121V110.674C301.121 112.595 301.474 113.342 301.869 113.908C303.063 115.621 305.196 115.953 306.411 115.953C307.33 115.953 309.292 115.767 310.544 114.178C311.577 112.896 311.592 111.463 311.592 110.767V102.861H309.874V110.726H309.869Z" fill="#231F20"/>
<path d="M321.055 102.855H316.762V115.689H318.542V109.983H320.609C322.929 109.983 323.812 109.558 324.492 108.878C325.182 108.182 325.504 107.351 325.504 106.38C325.504 105.415 325.198 104.543 324.559 103.883C323.692 102.944 322.628 102.855 321.055 102.855ZM320.65 108.483H318.542V104.293H321.029C321.953 104.293 323.625 104.293 323.625 106.303C323.62 108.405 321.823 108.483 320.65 108.483Z" fill="#231F20"/>
<path d="M342.027 102.508C340.838 102.508 339.078 102.799 337.744 104.237C336.342 105.742 336.093 107.891 336.093 109.345C336.093 112.865 337.515 115.985 341.892 115.985C346.455 115.985 347.825 112.548 347.825 109.142C347.82 104.782 345.588 102.508 342.027 102.508ZM344.788 113.296C344.036 114.194 342.982 114.469 341.938 114.469C340.921 114.469 339.82 114.204 339.093 113.296C338.201 112.195 337.957 110.648 337.957 109.246C337.957 106.614 338.782 104.003 342.042 104.003C344.97 104.003 345.93 106.209 345.93 109.116C345.936 109.994 345.832 112.018 344.788 113.296Z" fill="#231F20"/>
<path d="M352.514 115.689H354.325V109.859H359.818V108.369H354.325V104.366H360.15V102.855H352.514V115.689Z" fill="#231F20"/>
<path d="M376.222 104.084C378.694 104.084 378.927 105.87 378.989 106.311H380.895C380.661 103.394 378.107 102.672 376.29 102.672C371.721 102.672 370.673 106.7 370.673 109.41C370.673 111.897 371.545 115.884 376.056 115.884C378.263 115.884 380.588 114.825 380.863 112.307H378.906C378.844 112.614 378.74 113.164 378.283 113.662C377.738 114.228 376.991 114.42 376.202 114.42C373.268 114.42 372.578 111.809 372.578 109.39C372.578 107.256 373.123 104.084 376.222 104.084Z" fill="#231F20"/>
<path d="M390.569 102.508C389.381 102.508 387.616 102.799 386.281 104.237C384.88 105.742 384.636 107.891 384.636 109.345C384.636 112.865 386.053 115.985 390.424 115.985C394.993 115.985 396.368 112.548 396.368 109.142C396.363 104.782 394.12 102.508 390.569 102.508ZM393.321 113.296C392.573 114.194 391.525 114.469 390.476 114.469C389.464 114.469 388.363 114.204 387.631 113.296C386.738 112.195 386.494 110.648 386.494 109.246C386.494 106.614 387.33 104.003 390.58 104.003C393.513 104.003 394.473 106.209 394.473 109.116C394.479 109.994 394.37 112.018 393.321 113.296Z" fill="#231F20"/>
<path d="M407.781 113.436L404.147 102.855H401.006V115.689H402.729V104.205L406.789 115.689H408.476L412.687 104.138V115.689H414.426V102.855H411.493L407.781 113.436Z" fill="#231F20"/>
<path d="M423.961 102.855H419.668V115.689H421.443V109.983H423.52C425.825 109.983 426.728 109.558 427.393 108.878C428.094 108.182 428.41 107.351 428.41 106.38C428.41 105.415 428.104 104.543 427.466 103.883C426.599 102.944 425.529 102.855 423.961 102.855ZM423.556 108.483H421.443V104.293H423.93C424.854 104.293 426.526 104.293 426.526 106.303C426.526 108.405 424.735 108.483 423.556 108.483Z" fill="#231F20"/>
<path d="M435.49 102.855L430.091 115.689H431.923L433.309 112.345H439.264L440.65 115.689H442.592L437.4 102.855H435.49ZM433.875 110.907L436.362 104.615L438.724 110.907H433.875Z" fill="#231F20"/>
<path d="M455.362 113.467L449.054 102.855H446.583V115.689H448.198V104.792L454.723 115.689H457.007V102.855H455.362V113.467Z" fill="#231F20"/>
<path d="M463.983 102.855H462.207V115.689H463.983V102.855Z" fill="#231F20"/>
<path d="M470.776 109.859H476.747V108.369H470.776V104.366H477.053V102.855H469.001V115.689H477.188V114.116H470.776V109.859Z" fill="#231F20"/>
<path d="M489.723 109.43C488.971 108.936 488.638 108.874 485.575 108.08C484.013 107.711 483.27 107.322 483.27 106.185C483.27 104.903 484.33 104.098 486.115 104.098C487.377 104.098 488.727 104.461 488.815 106.06H490.668C490.627 105.52 490.595 104.653 489.884 103.875C488.856 102.753 487.128 102.613 486.276 102.613C483.857 102.613 481.396 103.75 481.396 106.367C481.396 107.213 481.682 108.178 482.725 108.884C483.379 109.326 484.252 109.544 486.209 110.027C488.01 110.468 489.158 110.759 489.158 112.191C489.158 112.835 488.82 114.481 486.162 114.481C483.203 114.481 483.104 112.835 483.058 111.947H481.22C481.22 112.565 481.235 113.598 481.967 114.538C482.974 115.836 484.963 116.002 485.944 116.002C489.235 116.002 491.016 114.273 491.016 111.999C491 111.465 490.917 110.219 489.723 109.43Z" fill="#231F20"/>
<path d="M88.1934 92.5332C93.2109 92.5332 97.2783 88.4657 97.2783 83.4482C97.2783 78.4308 93.2109 74.3633 88.1934 74.3633C83.1759 74.3633 79.1084 78.4308 79.1084 83.4482C79.1084 88.4657 83.1759 92.5332 88.1934 92.5332Z" fill="white"/>
<path d="M57.9 82.0372C61.6933 82.0372 64.7683 78.9622 64.7683 75.169C64.7683 71.3758 61.6933 68.3008 57.9 68.3008C54.1068 68.3008 51.0317 71.3758 51.0317 75.169C51.0317 78.9622 54.1068 82.0372 57.9 82.0372Z" fill="white"/>
<path d="M84.1105 68.573C84.1105 63.9266 80.3312 60.168 75.7056 60.168C71.0541 60.168 67.2954 63.9318 67.2954 68.573C67.2954 73.2141 71.0541 76.9882 75.7056 76.9882C80.3364 76.9882 84.1105 73.2089 84.1105 68.573Z" fill="white"/>
<path d="M84.5812 41.7005C88.1164 41.7005 90.9822 38.8346 90.9822 35.2995C90.9822 31.7643 88.1164 28.8984 84.5812 28.8984C81.046 28.8984 78.1802 31.7643 78.1802 35.2995C78.1802 38.8346 81.046 41.7005 84.5812 41.7005Z" fill="white"/>
<path d="M22.853 86.4883C20.9789 86.4883 19.4526 88.0197 19.4526 89.9042C19.4526 91.7887 20.9789 93.315 22.853 93.315C24.7479 93.315 26.269 91.7887 26.269 89.9042C26.269 88.0197 24.7479 86.4883 22.853 86.4883Z" fill="white"/>
<path d="M43.887 69.4527C47.6774 69.4527 50.7501 66.3801 50.7501 62.5897C50.7501 58.7994 47.6774 55.7266 43.887 55.7266C40.0966 55.7266 37.0239 58.7994 37.0239 62.5897C37.0239 66.3801 40.0966 69.4527 43.887 69.4527Z" fill="white"/>
<path d="M43.1078 77.9961C38.0825 77.9961 34.0176 82.0609 34.0176 87.0758C34.0176 92.1011 38.0825 96.1608 43.1078 96.1608C48.1123 96.1608 52.1771 92.1011 52.1771 87.0758C52.1771 82.0661 48.1123 77.9961 43.1078 77.9961Z" fill="white"/>
<path d="M30.6967 74.4256C33.7989 74.4256 36.3138 71.9108 36.3138 68.8085C36.3138 65.7063 33.7989 63.1914 30.6967 63.1914C27.5945 63.1914 25.0796 65.7063 25.0796 68.8085C25.0796 71.9108 27.5945 74.4256 30.6967 74.4256Z" fill="white"/>
<path d="M61.5719 65.893C66.2282 65.893 70.0027 62.1183 70.0027 57.4621C70.0027 52.8058 66.2282 49.0312 61.5719 49.0312C56.9157 49.0312 53.1411 52.8058 53.1411 57.4621C53.1411 62.1183 56.9157 65.893 61.5719 65.893Z" fill="white"/>
<path d="M23.4837 36.5759C25.6598 36.5759 27.424 34.8118 27.424 32.6356C27.424 30.4595 25.6598 28.6953 23.4837 28.6953C21.3075 28.6953 19.5435 30.4595 19.5435 32.6356C19.5435 34.8118 21.3075 36.5759 23.4837 36.5759Z" fill="white"/>
<path d="M36.0727 42.3964C39.4473 42.3964 42.183 39.6607 42.183 36.2861C42.183 32.9115 39.4473 30.1758 36.0727 30.1758C32.6981 30.1758 29.9624 32.9115 29.9624 36.2861C29.9624 39.6607 32.6981 42.3964 36.0727 42.3964Z" fill="white"/>
<path d="M23.4306 83.9238C26.0315 83.9238 28.1341 81.8213 28.1341 79.21C28.1341 76.6247 26.0315 74.5273 23.4306 74.5273C20.8193 74.5273 18.7168 76.6247 18.7168 79.21C18.7168 81.8213 20.8193 83.9238 23.4306 83.9238Z" fill="white"/>
<path d="M82.8075 26.8874C85.4051 26.8874 87.5109 24.7815 87.5109 22.1839C87.5109 19.5863 85.4051 17.4805 82.8075 17.4805C80.2098 17.4805 78.104 19.5863 78.104 22.1839C78.104 24.7815 80.2098 26.8874 82.8075 26.8874Z" fill="white"/>
<path d="M49.8064 51.9557C53.7831 51.9557 57.0069 48.732 57.0069 44.7553C57.0069 40.7786 53.7831 37.5547 49.8064 37.5547C45.8297 37.5547 42.606 40.7786 42.606 44.7553C42.606 48.732 45.8297 51.9557 49.8064 51.9557Z" fill="white"/>
<path d="M76.3238 55.3888C80.117 55.3888 83.192 52.3138 83.192 48.5206C83.192 44.7273 80.117 41.6523 76.3238 41.6523C72.5306 41.6523 69.4556 44.7273 69.4556 48.5206C69.4556 52.3138 72.5306 55.3888 76.3238 55.3888Z" fill="white"/>
<path d="M104.617 0H11.39C5.12392 0 0 5.11366 0 11.3849V104.612C0 110.873 5.12392 115.992 11.39 115.992H104.617C110.883 115.992 115.997 110.873 115.997 104.612V11.3849C115.997 5.11366 110.883 0 104.617 0ZM82.8081 26.9019C80.2124 26.9019 78.1151 24.7942 78.1151 22.1985C78.1151 19.5976 80.2124 17.5003 82.8081 17.5003C85.4142 17.5003 87.5219 19.5976 87.5219 22.1985C87.5271 24.789 85.4142 26.9019 82.8081 26.9019ZM90.9899 35.2965C90.9899 38.8318 88.119 41.6922 84.5889 41.6922C81.0379 41.6922 78.1879 38.8266 78.1879 35.2965C78.1879 31.7663 81.0431 28.8954 84.5889 28.8954C88.119 28.8902 90.9899 31.7611 90.9899 35.2965ZM83.1975 48.519C83.1975 52.3035 80.1242 55.3872 76.3293 55.3872C72.5344 55.3872 69.4611 52.3035 69.4611 48.519C69.4611 44.7292 72.5344 41.656 76.3293 41.656C80.1242 41.656 83.1975 44.724 83.1975 48.519ZM84.1112 68.5786C84.1112 73.2198 80.3319 76.9939 75.7064 76.9939C71.0549 76.9939 67.2962 73.2146 67.2962 68.5786C67.2962 63.9323 71.0549 60.1736 75.7064 60.1736C80.3371 60.1736 84.1112 63.9323 84.1112 68.5786ZM70.0061 57.4637C70.0061 62.1204 66.232 65.8947 61.5753 65.8947C56.9186 65.8947 53.1445 62.1204 53.1445 57.4637C53.1445 52.8018 56.9186 49.0226 61.5753 49.0226C66.232 49.0226 70.0061 52.8018 70.0061 57.4637ZM51.0263 75.1717C51.0263 71.3767 54.1048 68.3034 57.8946 68.3034C61.6843 68.3034 64.7576 71.3767 64.7576 75.1717C64.7576 78.9614 61.6843 82.0399 57.8946 82.0399C54.1048 82.0399 51.0263 78.9666 51.0263 75.1717ZM52.1788 87.0756C52.1788 92.1009 48.114 96.1605 43.1095 96.1605C38.0842 96.1605 34.0193 92.1009 34.0193 87.0756C34.0193 82.0607 38.0842 77.9958 43.1095 77.9958C48.114 77.9958 52.1788 82.0659 52.1788 87.0756ZM49.8064 51.9713C45.8297 51.9713 42.6111 48.7423 42.6111 44.7708C42.6111 40.7942 45.8297 37.5702 49.8064 37.5702C53.7882 37.5702 57.0068 40.7942 57.0068 44.7708C57.0068 48.7423 53.7882 51.9713 49.8064 51.9713ZM43.8778 55.7246C47.6779 55.7246 50.746 58.798 50.746 62.5981C50.746 66.3878 47.6779 69.4611 43.8778 69.4611C40.0829 69.4611 37.0251 66.3878 37.0251 62.5981C37.0251 58.798 40.0829 55.7246 43.8778 55.7246ZM36.0751 42.4034C32.711 42.4034 29.9648 39.678 29.9648 36.2984C29.9648 32.9188 32.7058 30.1778 36.0751 30.1778C39.4495 30.1778 42.1906 32.9136 42.1906 36.2984C42.1854 39.678 39.4495 42.4034 36.0751 42.4034ZM30.6968 63.1951C33.8012 63.1951 36.3139 65.6973 36.3139 68.8122C36.3139 71.9062 33.8012 74.419 30.6968 74.419C27.5923 74.419 25.0797 71.9062 25.0797 68.8122C25.0797 65.6973 27.5975 63.1951 30.6968 63.1951ZM23.4859 36.5736C21.3107 36.5736 19.5508 34.8085 19.5508 32.6333C19.5508 30.4581 21.3107 28.693 23.4859 28.693C25.6715 28.693 27.421 30.4581 27.421 32.6333C27.421 34.8085 25.6715 36.5736 23.4859 36.5736ZM23.434 74.533C26.0349 74.533 28.1374 76.6304 28.1374 79.2157C28.1374 81.827 26.0349 83.9296 23.434 83.9296C20.8227 83.9296 18.7202 81.827 18.7202 79.2157C18.7202 76.6356 20.8227 74.533 23.434 74.533ZM26.2685 89.9153C26.2685 91.7997 24.7474 93.3261 22.8525 93.3261C20.9785 93.3261 19.4522 91.7997 19.4522 89.9153C19.4522 88.0308 20.9785 86.4994 22.8525 86.4994C24.7474 86.4994 26.2685 88.0308 26.2685 89.9153ZM88.1968 92.5369C83.1767 92.5369 79.1118 88.4772 79.1118 83.4623C79.1118 78.4526 83.1767 74.3878 88.1968 74.3878C93.2117 74.3878 97.2817 78.4526 97.2817 83.4623C97.2817 88.4772 93.2065 92.5369 88.1968 92.5369Z" fill="#ED1C24"/>
</svg>
