<svg width="56" height="60" viewBox="0 0 56 60" fill="none" xmlns="http://www.w3.org/2000/svg">
<path fill-rule="evenodd" clip-rule="evenodd" d="M7.70449 0V18.6569C7.70449 20.4016 9.17804 21.8981 11.0973 21.8981C13.0163 21.8981 14.4891 20.4019 14.4891 18.6569V0H16.4202V3.64811L29.7874 5.91593V0H31.7184V6.24354L38.504 7.39475V0H40.435V7.70523H40.3341L42.1047 8.00563C42.4746 8.05058 42.8428 8.11322 43.2088 8.19412C43.2156 8.19563 43.2225 8.19722 43.2292 8.19888C43.7502 8.31474 44.268 8.46569 44.7793 8.65947C48.7803 10.1714 51.4427 13.7358 52.5783 18.1321C53.7133 22.5257 53.3483 27.808 51.2784 32.9585C49.6005 37.137 47.0395 40.6298 44.0668 43.1225L43.3213 43.7476L42.0941 42.2287L42.8396 41.6036C45.555 39.3267 47.9289 36.1042 49.4913 32.2134C51.4217 27.4097 51.7267 22.5651 50.7109 18.6327C49.6959 14.7034 47.3873 11.7429 44.107 10.5036L44.1061 10.5033C43.6872 10.3445 43.2575 10.2187 42.8177 10.1209L41.8442 9.95577C38.9208 9.6115 35.7556 10.569 32.8328 12.6275C29.6019 14.903 26.7273 18.4883 24.9221 22.9629C24.9177 22.9739 24.9133 22.9848 24.9089 22.9958C23.1047 27.4869 22.7098 32.0422 23.4899 35.8548C24.1879 39.2656 25.8102 42.0303 28.1547 43.6913L29.0651 44.2621C29.5106 44.5415 29.6567 45.1315 29.3945 45.5927C29.1323 46.0539 28.5573 46.2185 28.0977 45.9639C27.7501 45.7713 27.4151 45.5615 27.0928 45.3355L5.13844 31.5702C5.04056 31.5088 4.95673 31.432 4.8885 31.3445C-0.018931 28.374 -1.33066 20.8994 1.42124 14.0512M23.0253 40.4752C22.3843 39.1823 21.9074 37.7606 21.5995 36.2563C20.7331 32.0221 21.1865 27.0678 23.1217 22.2506C23.1217 22.2505 23.1217 22.2506 23.1217 22.2506C25.0578 17.4325 28.1674 13.5214 31.7356 11.0086C32.9816 10.1311 34.291 9.41965 35.6307 8.90162L16.4202 5.64245V18.6569C16.4202 21.5789 13.9917 23.8654 11.0973 23.8654C8.20323 23.8654 5.77346 21.5792 5.77346 18.6569V10.3484C4.75825 11.6291 3.87883 13.1257 3.20867 14.7957C0.583376 21.3284 2.20115 27.6487 6.12715 29.7986C6.25659 29.8695 6.36428 29.9666 6.44674 30.0805L23.0253 40.4752ZM7.70449 0H5.77346H7.70449ZM5.77346 0V7.42807V0ZM5.77346 7.42807L5.38088 7.83813L5.77346 7.42807ZM5.38088 7.83813C3.76952 9.52124 2.39313 11.6296 1.42124 14.0512L5.38088 7.83813ZM27.4757 23.8318C27.4758 23.8318 27.476 23.8319 27.7293 22.8827C27.9827 21.9336 27.9829 21.9336 27.9831 21.9337L27.9926 21.9363L28.0168 21.9432C28.0376 21.9491 28.0677 21.9577 28.1066 21.9689C28.1844 21.9915 28.2975 22.0248 28.4419 22.0688C28.7306 22.1568 29.1451 22.2875 29.6542 22.4601C30.6713 22.805 32.0711 23.319 33.6025 23.9961C36.6253 25.3327 40.3169 27.3711 42.5044 30.1087C43.639 31.5284 44.208 32.8723 44.33 34.177C44.4517 35.4794 44.1173 36.6313 43.6397 37.6448C43.2472 38.4776 42.7293 39.2707 42.265 39.9816C42.1776 40.1156 42.092 40.2466 42.0095 40.3744C41.4626 41.2222 41.0418 41.9428 40.8424 42.6464C40.3985 44.2106 40.3018 46.9301 40.3356 49.3737C40.3522 50.5715 40.3989 51.6645 40.4416 52.4584C40.4444 52.5098 40.4471 52.5599 40.4499 52.6087C40.5843 52.5848 40.7285 52.5611 40.8815 52.5385C41.8294 52.3982 43.1376 52.2962 44.5515 52.4633C47.2644 52.7838 50.4201 54.1183 52.0493 58.0328H56V60H0V58.0328H21.4491C22.2619 55.8506 23.5319 54.407 25.0224 53.5151C26.5455 52.6037 28.228 52.3101 29.7464 52.3C30.9042 52.2923 31.9951 52.449 32.8979 52.6435C33.5442 46.8278 32.2137 43.7623 30.8739 42.1589C30.1691 41.3153 29.4251 40.8306 28.8685 40.558C28.5897 40.4215 28.3584 40.3385 28.2042 40.2909C28.1271 40.2672 28.0697 40.2524 28.0357 40.2443C28.0186 40.2403 28.0075 40.2379 28.0028 40.237C28.0004 40.2365 27.9996 40.2363 28.0005 40.2365L27.0569 40.0693L27.3878 38.1312L28.339 38.2997L28.1736 39.2688C28.339 38.2997 28.3399 38.2999 28.3407 38.3L28.3426 38.3004L28.3468 38.3011L28.3573 38.3031L28.3862 38.3089C28.4089 38.3136 28.4385 38.32 28.4745 38.3286C28.5465 38.3457 28.6441 38.3712 28.7632 38.4079C29.0012 38.4813 29.3265 38.5996 29.7051 38.785C30.4632 39.1563 31.4371 39.7979 32.3444 40.8837C34.1457 43.0395 35.5502 46.7765 34.7818 53.1655C34.8259 53.1806 34.8677 53.1952 34.9073 53.2092C35.0543 53.2612 35.1705 53.3052 35.2518 53.3369C35.2924 53.3527 35.3243 53.3656 35.3471 53.3748L35.3742 53.386L35.3825 53.3894L35.3864 53.391C35.3868 53.3912 35.3872 53.3914 35.0542 54.2088L35.3864 53.391L36.279 53.7685L35.5387 55.5854L34.6481 55.2088L34.6469 55.2083L34.6457 55.2078L34.6307 55.2017C34.6231 55.1986 34.6131 55.1945 34.6006 55.1896C34.5894 55.1851 34.5761 55.1799 34.561 55.174C34.4974 55.1492 34.4004 55.1124 34.2739 55.0676C34.0206 54.978 33.6511 54.8571 33.1972 54.7364C32.2839 54.4935 31.056 54.2585 29.759 54.2672C28.4608 54.2758 27.1425 54.5279 26.0003 55.2114C25.0635 55.772 24.1959 56.6515 23.547 58.0328H49.9061C48.5603 55.5388 46.3711 54.6587 44.329 54.4174C43.1303 54.2758 41.9982 54.3611 41.159 54.4853C40.7417 54.547 40.4025 54.6175 40.1708 54.6717C40.0551 54.6987 39.9666 54.7216 39.9091 54.7371C39.8803 54.7448 39.8593 54.7507 39.8466 54.7544L39.8337 54.7581L39.8323 54.7585L38.6916 55.1021L38.5972 53.8928L39.5597 53.8149C38.5972 53.8928 38.5972 53.893 38.5972 53.8928L38.5953 53.8673L38.5901 53.7971C38.5856 53.736 38.5793 53.6466 38.5716 53.5319C38.5562 53.3027 38.5353 52.9725 38.5135 52.566C38.4698 51.7535 38.4218 50.6328 38.4048 49.4014C38.3714 46.9868 38.4523 43.9855 38.9871 42.1007C39.2766 41.0794 39.8528 40.1357 40.3958 39.294C40.4903 39.1476 40.5839 39.0039 40.6762 38.8624C41.1404 38.1502 41.5701 37.4911 41.8988 36.7934C42.2817 35.9809 42.4854 35.1956 42.4076 34.3635C42.3301 33.5338 41.9621 32.5459 41.0068 31.3507C39.1292 29.0009 35.8076 27.1157 32.8336 25.8007C31.3666 25.152 30.022 24.6582 29.0443 24.3267C28.556 24.1611 28.1605 24.0364 27.8887 23.9536C27.7528 23.9122 27.6478 23.8813 27.5777 23.861C27.5593 23.8556 27.5432 23.851 27.5297 23.8471C27.5175 23.8436 27.5074 23.8407 27.4992 23.8384L27.4805 23.8331L27.4757 23.8318Z" fill="#ED1C24"/>
</svg>
