<svg width="60" height="60" viewBox="0 0 60 60" fill="none" xmlns="http://www.w3.org/2000/svg">
<path fill-rule="evenodd" clip-rule="evenodd" d="M6.77435 31.0195V59.1916H4.83887V31.0195H6.77435Z" fill="#ED1C24"/>
<path fill-rule="evenodd" clip-rule="evenodd" d="M55.1614 54.4963V38.5327H57.0969V54.4963H55.1614Z" fill="#ED1C24"/>
<path fill-rule="evenodd" clip-rule="evenodd" d="M52.2581 56.3745C52.2581 54.7709 53.5889 53.5261 55.1613 53.5261H57.0968C58.6691 53.5261 60 54.7709 60 56.3745V59.1917H58.0645V56.3745C58.0645 55.9029 57.6612 55.4668 57.0968 55.4668H55.1613C54.5969 55.4668 54.1935 55.9029 54.1935 56.3745V59.1917H52.2581V56.3745Z" fill="#ED1C24"/>
<path fill-rule="evenodd" clip-rule="evenodd" d="M35.374 50.6095L21.2673 59.9999L20.1968 58.383L34.3035 48.9927L35.374 50.6095Z" fill="#ED1C24"/>
<path fill-rule="evenodd" clip-rule="evenodd" d="M25.7084 49.0007L39.373 58.3911L38.2788 59.9919L24.6143 50.6016L25.7084 49.0007Z" fill="#ED1C24"/>
<path fill-rule="evenodd" clip-rule="evenodd" d="M37.7421 34.5923V33.8374H35.8066V34.7764C35.8066 34.8981 35.8295 35.0187 35.8739 35.1319L43.6158 54.8516C43.7615 55.2226 44.1187 55.4666 44.5163 55.4666H46.4518V59.1914H48.3873V54.4962C48.3873 53.9603 47.954 53.5258 47.4195 53.5258H45.1754L37.7421 34.5923Z" fill="#ED1C24"/>
<path fill-rule="evenodd" clip-rule="evenodd" d="M29.1247 39.0582C29.2845 38.7183 29.6255 38.5015 30.0001 38.5015H30.9679C31.3637 38.5015 31.7197 38.7432 31.8665 39.1118L39.7246 58.8315L37.9273 59.5516L30.4508 40.7893L21.6075 59.6052L19.8567 58.7779L29.1247 39.0582Z" fill="#ED1C24"/>
<path fill-rule="evenodd" clip-rule="evenodd" d="M23.2259 34.5507V29.1414H25.1614V34.7765C25.1614 34.9251 25.1274 35.0716 25.062 35.2049L15.3846 54.9247C15.2218 55.2565 14.885 55.4666 14.5163 55.4666H13.5485V59.1915H11.613V54.4963C11.613 53.9604 12.0463 53.5259 12.5808 53.5259H13.9139L23.2259 34.5507Z" fill="#ED1C24"/>
<path fill-rule="evenodd" clip-rule="evenodd" d="M18.0419 0.0638525C18.3149 -0.0406788 18.6204 -0.0159265 18.8731 0.131201L23.7118 2.94831C24.0488 3.14451 24.2355 3.52425 24.1856 3.91177L23.2179 11.4241C23.1942 11.6076 23.1188 11.7804 23.0004 11.9224L6.54877 31.6421C6.28277 31.961 5.84377 32.0745 5.45715 31.9244L0.618444 30.0464C0.204546 29.8857 -0.0473147 29.4634 0.00743972 29.0217C2.21082 11.2503 9.71784 3.25123 18.0419 0.0638525ZM2.02511 28.5113L5.50915 29.8636L21.3345 10.8945L22.1837 4.30278L18.3059 2.04511C11.073 4.9832 4.23233 12.1279 2.02511 28.5113Z" fill="#ED1C24"/>
<path fill-rule="evenodd" clip-rule="evenodd" d="M56.8511 34.241L24.6648 14.95L25.6578 13.2842L58.561 33.0049C58.9729 33.2517 59.1421 33.7638 58.9589 34.2084L57.0234 38.9036C56.9227 39.1479 56.7269 39.3405 56.4814 39.4367C56.2359 39.533 55.9618 39.5246 55.7225 39.4136L33.4645 29.0832L34.2775 27.322L55.62 37.2275L56.8511 34.241Z" fill="#ED1C24"/>
<path fill-rule="evenodd" clip-rule="evenodd" d="M18.796 20.436L26.5476 24.0579L25.7301 25.817L17.9785 22.1951L18.796 20.436Z" fill="#ED1C24"/>
<path fill-rule="evenodd" clip-rule="evenodd" d="M30.9679 25.4165C29.8688 25.4165 29.0324 26.2731 29.0324 27.2633C29.0324 28.2535 29.8688 29.11 30.9679 29.11C32.067 29.11 32.9034 28.2535 32.9034 27.2633C32.9034 26.2731 32.067 25.4165 30.9679 25.4165ZM27.0969 27.2633C27.0969 25.1418 28.8602 23.4758 30.9679 23.4758C33.0756 23.4758 34.8389 25.1418 34.8389 27.2633C34.8389 29.3848 33.0756 31.0508 30.9679 31.0508C28.8602 31.0508 27.0969 29.3848 27.0969 27.2633Z" fill="#ED1C24"/>
</svg>
