<svg width="60" height="44" viewBox="0 0 60 44" fill="none" xmlns="http://www.w3.org/2000/svg">
<path fill-rule="evenodd" clip-rule="evenodd" d="M3.87044 1.88396H0V0H3.87044C5.46624 0 6.758 1.27926 6.758 2.8561V9.57149H11.6589V11.4555H5.80563C5.27965 11.4555 4.85327 11.0337 4.85327 10.5135V2.8561C4.85327 2.31912 4.41365 1.88396 3.87044 1.88396ZM53.2421 2.8561C53.2421 1.27926 54.5338 0 56.1296 0H60V1.88396H56.1296C55.5864 1.88396 55.1468 2.31912 55.1468 2.8561V10.5135C55.1468 11.0337 54.7204 11.4555 54.1944 11.4555H46.137C48.1602 14.4785 49.3383 18.1032 49.3383 22.0001C49.3383 32.5641 40.68 41.128 29.9995 41.128C24.0984 41.128 18.8146 38.5136 15.2674 34.392V34.4276H6.75893V34.4426H6.758V41.143C6.758 42.7204 5.46655 44 3.87044 44H0V42.116H3.87044C4.41335 42.116 4.85327 41.6812 4.85327 41.143V33.4856C4.85327 33.4715 4.85358 33.4575 4.8542 33.4436V31.5724H6.75893V32.5436H13.8614C11.8387 29.5208 10.6608 25.8965 10.6608 22.0001C10.6608 11.436 19.319 2.87217 29.9995 2.87217C35.8832 2.87217 41.1532 5.47104 44.7001 9.57149H53.2421V2.8561ZM29.9995 4.75614C20.371 4.75614 12.5655 12.4765 12.5655 22.0001C12.5655 31.5236 20.371 39.244 29.9995 39.244C39.6281 39.244 47.4336 31.5236 47.4336 22.0001C47.4336 12.4765 39.6281 4.75614 29.9995 4.75614ZM7.74181 6.68431V3.81409H9.64654V6.68431H7.74181ZM50.3535 6.68431V3.81409H52.2582V6.68431H50.3535ZM20.0725 18.1858H25.7029C26.4586 17.3525 27.4551 16.7395 28.5932 16.4574L31.4521 11.5596C30.9755 11.4916 30.4908 11.4549 29.9986 11.4544C25.4763 11.4548 21.6179 14.2471 20.0725 18.1858ZM17.8451 18.8925C19.2419 13.5367 24.1441 9.57046 29.9995 9.57046H30.0004C31.1074 9.57148 32.1702 9.72634 33.1787 9.98735C33.4661 10.0617 33.7019 10.2645 33.8164 10.5356C33.9309 10.8067 33.9109 11.1152 33.7624 11.3696L30.0301 17.7638C29.8877 18.0077 29.6425 18.1758 29.3616 18.222C28.3634 18.3863 27.5005 18.9248 26.9105 19.6962C26.7305 19.9315 26.4494 20.0698 26.151 20.0698H18.7673C18.4728 20.0698 18.1949 19.935 18.0145 19.7047C17.8341 19.4745 17.7716 19.1746 17.8451 18.8925ZM37.8735 12.763C38.1627 12.7219 38.4549 12.8144 38.6663 13.0138C41.0616 15.274 42.5651 18.4603 42.5651 21.998C42.5651 25.5384 41.0617 28.7248 38.6661 30.9843C38.4547 31.1837 38.1625 31.2761 37.8734 31.2349C37.5842 31.1938 37.3302 31.0237 37.1841 30.7735L33.5328 24.5178C33.3762 24.2496 33.363 23.9224 33.4973 23.6426C33.7434 23.1303 33.8861 22.5782 33.8861 21.999C33.8861 21.4201 33.744 20.8683 33.4978 20.3573C33.3629 20.0773 33.376 19.7497 33.5327 19.4811L37.1841 13.2245C37.3302 12.9742 37.5843 12.8041 37.8735 12.763ZM38.1921 15.2658L35.4197 20.0163C35.6529 20.6276 35.7909 21.2934 35.7909 21.999C35.7909 22.7057 35.6521 23.3716 35.4195 23.9822L38.1921 28.7324C39.7323 26.9059 40.6604 24.5613 40.6604 21.998C40.6604 19.4373 39.7324 17.093 38.1921 15.2658ZM6.75893 16.2567V21.9991H4.8542V16.2567H6.75893ZM55.1458 16.2567V21.9991H53.2411V16.2567H55.1458ZM29.9995 21.027C29.4562 21.027 29.0157 21.4627 29.0157 22.0001C29.0157 22.5375 29.4562 22.9731 29.9995 22.9731C30.5429 22.9731 30.9833 22.5375 30.9833 22.0001C30.9833 21.4627 30.5429 21.027 29.9995 21.027ZM27.111 22.0001C27.111 20.4221 28.4043 19.143 29.9995 19.143C31.5948 19.143 32.8881 20.4221 32.8881 22.0001C32.8881 23.578 31.5948 24.8571 29.9995 24.8571C28.4043 24.8571 27.111 23.578 27.111 22.0001ZM18.0144 24.2942C18.1948 24.0639 18.4728 23.9291 18.7673 23.9291H26.151C26.4495 23.9291 26.7307 24.0675 26.9107 24.303C27.5005 25.0747 28.363 25.6125 29.3616 25.7768C29.6425 25.8231 29.8877 25.9912 30.0301 26.2351L33.7624 32.6302C33.9109 32.8847 33.9309 33.1931 33.8164 33.4642C33.7019 33.7353 33.4661 33.9381 33.1787 34.0125C32.1696 34.2736 31.1065 34.4275 29.9995 34.4275C24.144 34.4275 19.2429 30.4612 17.8452 25.1066C17.7716 24.8245 17.834 24.5245 18.0144 24.2942ZM20.0728 25.8131C21.619 29.7513 25.477 32.5435 29.9995 32.5435C30.4914 32.5435 30.9758 32.5073 31.4519 32.4397L28.5932 27.5415C27.4553 27.2596 26.4586 26.6472 25.7027 25.8131H20.0728ZM53.2411 34.4276V34.4426H53.2421V41.143C53.2421 42.7204 54.5335 44 56.1296 44H60V42.116H56.1296C55.5867 42.116 55.1468 41.6812 55.1468 41.143V33.4856C55.1468 33.4711 55.1465 33.4566 55.1458 33.4423V31.5724H53.2411V32.5436H48.3411V34.4276H53.2411ZM7.74181 40.1859V37.3148H9.64654V40.1859H7.74181ZM52.2582 37.3148V40.1859H50.3535V37.3148H52.2582Z" fill="#ED1C24"/>
</svg>
