<svg width="60" height="60" viewBox="0 0 60 60" fill="none" xmlns="http://www.w3.org/2000/svg">
<path fill-rule="evenodd" clip-rule="evenodd" d="M24.6243 1.93548C22.8344 1.93548 21.2903 3.48887 21.2903 5.52143V9.90468H19.3548V5.52143C19.3548 2.52534 21.663 0 24.6243 0H40.7542C43.7145 0 46.0236 2.52521 46.0236 5.52143V5.69282H49.3539C54.0979 5.69282 57.8492 9.74631 57.8492 14.6298V22.7694H60V24.7049H57.8492V45.5397H60V47.4752H57.8492V60H55.9137V47.4752H44.0872V45.5397H55.9137V24.7049H41.9364V22.7694H55.9137V14.6298C55.9137 10.7097 52.9264 7.62831 49.3539 7.62831H40.7533C37.1817 7.62831 34.1936 10.7098 34.1936 14.6298V16.7357H32.2581V14.6298C32.2581 9.74623 36.0104 5.69282 40.7533 5.69282H44.0881V5.52143C44.0881 3.489 42.5433 1.93548 40.7542 1.93548H24.6243ZM13.9782 13.4916C13.9782 12.9571 14.4115 12.5238 14.9459 12.5238H25.6992C26.2337 12.5238 26.667 12.9571 26.667 13.4916V15.7399C33.3044 17.8909 38.4217 23.6069 40.0689 30.7395H40.7533C41.2878 30.7395 41.7211 31.1728 41.7211 31.7073V39.6774C41.7211 40.2119 41.2878 40.6451 40.7533 40.6451H40.6461V60H38.7106V44.708C35.7357 51.2633 29.6112 55.9508 22.3653 56.5251V60H20.4299V56.5796C12.7193 56.4062 6.13184 51.5862 3.01049 44.7106V60H1.075V40.6451H0.967742C0.433273 40.6451 0 40.2119 0 39.6774V31.7082C0 31.1737 0.433273 30.7405 0.967742 30.7405H1.65095C3.20736 23.9944 7.86366 18.5117 13.9782 16.1147V13.4916ZM22.3653 54.5824V43.2634H20.4299V54.6436C12.0263 54.4316 5.00801 48.0341 3.37134 39.4952C3.28396 39.0393 2.88513 38.7096 2.4209 38.7096H1.93548V32.6759H2.43534C2.89936 32.6759 3.29807 32.3466 3.38567 31.8909C4.6743 25.1884 9.27819 19.8 15.2661 17.7008C15.654 17.5649 15.9137 17.1986 15.9137 16.7876V14.4593H24.7315V16.4579C24.7315 16.8914 25.0198 17.272 25.437 17.3894C31.5596 19.1128 36.4138 24.2123 38.0773 30.7395H7.5266V32.675H38.4853L38.5173 32.8413L39.382 32.675H39.7856V38.7096H39.3912L38.5311 38.5447L38.4995 38.7096H7.5266V40.6451H38.0928C36.1619 48.2449 29.9111 53.9119 22.3653 54.5824Z" fill="#ED1C24"/>
</svg>
