<svg width="60" height="60" viewBox="0 0 60 60" fill="none" xmlns="http://www.w3.org/2000/svg">
<path fill-rule="evenodd" clip-rule="evenodd" d="M30.0014 14.7476C30.3429 14.7476 30.6583 14.9292 30.8284 15.2237L38.0543 27.7339L38.0567 27.7379L38.0762 27.7708C38.0928 27.7988 38.1162 27.8389 38.1456 27.8901C38.2043 27.9924 38.2868 28.1393 38.3852 28.3229C38.5816 28.6894 38.8432 29.206 39.1054 29.8088C39.6173 30.9857 40.1825 32.6047 40.1825 34.1019C40.1825 39.6946 35.6242 44.2268 30.0004 44.2268C24.3767 44.2268 19.8174 39.6947 19.8174 34.1019C19.8174 32.6439 20.3678 31.0497 20.8647 29.8897C21.1195 29.2949 21.3737 28.7838 21.5645 28.4209C21.6601 28.2391 21.7402 28.0935 21.7972 27.9921C21.8257 27.9414 21.8485 27.9016 21.8645 27.8739L21.8835 27.8414L21.8889 27.832L29.1744 15.2235C29.3445 14.9291 29.66 14.7475 30.0014 14.7476ZM36.4142 28.7029L36.4043 28.6861L30.0012 17.6004L23.5348 28.7914L23.5318 28.7964L23.5182 28.8197C23.5058 28.8412 23.4869 28.8742 23.4623 28.918C23.4131 29.0055 23.3415 29.1354 23.255 29.3C23.0817 29.6297 22.8504 30.0947 22.6197 30.6333C22.1456 31.7401 21.725 33.0421 21.725 34.1019C21.725 38.6462 25.4296 42.3295 30.0004 42.3295C34.5711 42.3295 38.2748 38.6464 38.2748 34.1019C38.2748 33.0063 37.8414 31.6812 37.3546 30.5621C37.1175 30.017 36.8798 29.5476 36.7017 29.2152C36.6128 29.0493 36.5393 28.9185 36.4888 28.8305C36.4635 28.7865 36.4441 28.7532 36.4313 28.7317L36.4175 28.7083L36.4142 28.7029Z" fill="#ED1C24"/>
<path fill-rule="evenodd" clip-rule="evenodd" d="M30.0014 14.7476C30.3429 14.7476 30.6583 14.9292 30.8284 15.2237L38.0543 27.7339L38.0567 27.7379L38.0762 27.7708C38.0928 27.7988 38.1162 27.8389 38.1456 27.8901C38.2043 27.9924 38.2868 28.1393 38.3852 28.3229C38.5816 28.6894 38.8432 29.206 39.1054 29.8088C39.6173 30.9857 40.1825 32.6047 40.1825 34.1019C40.1825 39.6946 35.6242 44.2268 30.0004 44.2268C24.3767 44.2268 19.8174 39.6947 19.8174 34.1019C19.8174 32.6439 20.3678 31.0497 20.8647 29.8897C21.1195 29.2949 21.3737 28.7838 21.5645 28.4209C21.6601 28.2391 21.7402 28.0935 21.7972 27.9921C21.8257 27.9414 21.8485 27.9016 21.8645 27.8739L21.8835 27.8414L21.8889 27.832L29.1744 15.2235C29.3445 14.9291 29.66 14.7475 30.0014 14.7476ZM36.4142 28.7029L36.4043 28.6861L30.0012 17.6004L23.5348 28.7914L23.5318 28.7964L23.5182 28.8197C23.5058 28.8412 23.4869 28.8742 23.4623 28.918C23.4131 29.0055 23.3415 29.1354 23.255 29.3C23.0817 29.6297 22.8504 30.0947 22.6197 30.6333C22.1456 31.7401 21.725 33.0421 21.725 34.1019C21.725 38.6462 25.4296 42.3295 30.0004 42.3295C34.5711 42.3295 38.2748 38.6464 38.2748 34.1019C38.2748 33.0063 37.8414 31.6812 37.3546 30.5621C37.1175 30.017 36.8798 29.5476 36.7017 29.2152C36.6128 29.0493 36.5393 28.9185 36.4888 28.8305C36.4635 28.7865 36.4441 28.7532 36.4313 28.7317L36.4175 28.7083L36.4142 28.7029Z" fill="#ED1C24"/>
<path fill-rule="evenodd" clip-rule="evenodd" d="M32.814 28.5664C33.1553 28.5664 33.4705 28.7477 33.6408 29.0418L34.9566 31.3155L34.9603 31.3217L34.9777 31.3518C34.9916 31.3763 35.0102 31.4097 35.0319 31.4504C35.0749 31.5312 35.132 31.6447 35.1897 31.7781C35.2926 32.016 35.4486 32.4309 35.4486 32.8666C35.4486 34.316 34.2696 35.4863 32.8151 35.4877L32.8141 35.4877C31.3588 35.4877 30.1768 34.3169 30.1768 32.8666C30.1768 32.4376 30.3303 32.0281 30.4305 31.7951C30.4868 31.6639 30.5427 31.5522 30.5846 31.4726C30.6058 31.4325 30.624 31.3996 30.6376 31.3755L30.6546 31.3458L30.6594 31.3377L31.9873 29.042C32.1575 28.7478 32.4727 28.5664 32.814 28.5664ZM32.305 32.2973L32.3009 32.3046C32.2952 32.3147 32.2857 32.3318 32.2737 32.3546C32.2493 32.4007 32.2167 32.4661 32.1846 32.5408C32.1519 32.6167 32.1243 32.6921 32.1057 32.7594C32.0966 32.7924 32.0909 32.8191 32.0876 32.8394C32.0846 32.8581 32.0844 32.8669 32.0844 32.8669C32.0844 32.8669 32.0844 32.8671 32.0844 32.8669C32.0844 33.2663 32.4092 33.5902 32.8136 33.5904C33.2169 33.5898 33.5409 33.2669 33.5409 32.8666C33.5409 32.867 33.5408 32.8569 33.5373 32.835C33.5339 32.8135 33.5279 32.7857 33.5185 32.7517C33.4993 32.6823 33.4708 32.6051 33.4373 32.5277C33.4044 32.4516 33.3709 32.385 33.3459 32.3381C33.3336 32.315 33.3239 32.2976 33.318 32.2873L33.3124 32.2776L33.3132 32.2789L33.3056 32.266L32.8143 31.417L32.305 32.2973Z" fill="#ED1C24"/>
<path fill-rule="evenodd" clip-rule="evenodd" d="M59.9999 33.2149L59.8689 34.1545C57.8339 48.7554 45.2411 60.0001 30.0004 60.0001C14.7587 60.0001 2.16689 48.7554 0.130887 34.1546C0.0836196 33.8156 0.223578 33.4776 0.497142 33.27C0.770706 33.0625 1.13547 33.0175 1.45168 33.1524L11.1492 37.2897L10.3972 39.0333L2.30902 35.5827C4.91267 48.4279 16.3184 58.1028 30.0004 58.1028C44.2749 58.1028 56.0732 47.5704 57.9794 33.894L58.1103 32.9543L59.9999 33.2149Z" fill="#ED1C24"/>
<path fill-rule="evenodd" clip-rule="evenodd" d="M30.0005 1.89729C15.725 1.89729 3.92671 12.4288 2.02055 26.1052L1.88958 27.0448L0 26.7843L0.130967 25.8446C2.166 11.2437 14.7589 0 30.0005 0C45.2411 0 57.834 11.2437 59.869 25.8446C59.9163 26.1836 59.7763 26.5216 59.5027 26.7291C59.2292 26.9367 58.8644 26.9816 58.5482 26.8467L48.8507 22.7095L49.6027 20.9658L57.691 24.4165C55.0882 11.5715 43.6816 1.89729 30.0005 1.89729Z" fill="#ED1C24"/>
</svg>
