<svg width="60" height="48" viewBox="0 0 60 48" fill="none" xmlns="http://www.w3.org/2000/svg">
<path fill-rule="evenodd" clip-rule="evenodd" d="M18.5748 1.52289C18.397 1.52289 18.2541 1.66208 18.2541 1.83508V7.26037C18.2541 7.42502 18.3835 7.55904 18.5493 7.5716L52.0789 4.54679C52.1029 4.54462 52.127 4.54354 52.1511 4.54354C52.3281 4.54354 52.4718 4.40359 52.4718 4.23135V1.83508C52.4718 1.66243 52.3284 1.52289 52.1511 1.52289H43.6061V0H52.1511C53.1925 0 54.0363 0.821406 54.0363 1.83508V4.23135C54.0363 5.23064 53.2148 6.04484 52.192 6.06601L47.4045 6.49789L55.2668 23.865C55.3106 23.9618 55.3332 24.0664 55.3332 24.1721V30.8562H57.2895V32.379H52.9317C51.5368 32.379 50.4067 33.4799 50.4067 34.8377V40.8341H48.8423V34.8377C48.8423 32.6396 50.6721 30.8562 52.9317 30.8562H53.7688V24.3324L45.762 6.64607L23.3118 8.67137L18.5761 21.7698H26.275V19.3133C26.275 18.8927 26.6252 18.5518 27.0572 18.5518H28.5497V9.80062H30.1142V18.5518H42.3412C42.7732 18.5518 43.1234 18.8927 43.1234 19.3133V33.0482H41.559V20.0747H30.1142L28.5497 20.0748L27.8395 20.0747V35.3958H40.8652C44.5222 35.3958 47.4898 38.2836 47.4898 41.8437V42.5671H53.8655L58.4355 38.1179V22.6522L53.2747 7.23304L54.7622 6.76128L59.9615 22.2954C59.987 22.3715 60 22.4511 60 22.5312V38.4332C60 38.6352 59.9176 38.8288 59.7709 38.9716L54.7427 43.867C54.596 44.0098 54.3971 44.09 54.1896 44.09H47.4898V46.4771H60V48H0.782228C0.350215 48 0 47.6591 0 47.2386V41.8437C0 38.2838 2.96588 35.3958 6.62387 35.3958H26.275V23.2926H4.24358V21.7698H16.9176L21.5974 8.82604L18.6469 9.0922C18.6229 9.09437 18.5989 9.09545 18.5748 9.09545C17.5322 9.09545 16.6896 8.2737 16.6896 7.26037V1.83508C16.6896 0.821758 17.5322 0 18.5748 0H33.7304V1.52289H18.5748ZM45.9254 46.4771V44.09L45.9253 42.5671L45.9254 41.8437C45.9254 39.125 43.6584 36.9187 40.8652 36.9187H6.62387C3.83005 36.9187 1.56446 39.1247 1.56446 41.8437V46.4771H45.9254ZM37.3185 0H41.994V1.52289H37.3185V0ZM21.7975 3.79439C21.4511 3.79439 21.1702 4.06781 21.1702 4.40507C21.1702 4.74234 21.4511 5.01575 21.7975 5.01575C22.144 5.01575 22.4249 4.74234 22.4249 4.40507C22.4249 4.06781 22.144 3.79439 21.7975 3.79439ZM19.6057 4.40507C19.6057 3.22674 20.587 2.27151 21.7975 2.27151C23.008 2.27151 23.9893 3.22674 23.9893 4.40507C23.9893 5.58341 23.008 6.53864 21.7975 6.53864C20.587 6.53864 19.6057 5.58341 19.6057 4.40507ZM31.5159 21.7698V28.7591H39.4485V30.2819H30.7337C30.3017 30.2819 29.9515 29.941 29.9515 29.5205V21.7698H31.5159ZM0.742315 29.3333H19.8091V30.8562H0.742315V29.3333ZM10.0805 40.9453C9.65327 40.9453 9.30691 41.2825 9.30691 41.6984C9.30691 42.1143 9.65327 42.4514 10.0805 42.4514C10.5078 42.4514 10.8542 42.1143 10.8542 41.6984C10.8542 41.2825 10.5078 40.9453 10.0805 40.9453ZM7.74245 41.6984C7.74245 40.4414 8.78927 39.4224 10.0805 39.4224C11.3718 39.4224 12.4186 40.4414 12.4186 41.6984C12.4186 42.9553 11.3718 43.9743 10.0805 43.9743C8.78927 43.9743 7.74245 42.9553 7.74245 41.6984ZM19.0277 40.9453C18.6004 40.9453 18.2541 41.2824 18.2541 41.6984C18.2541 42.1143 18.6004 42.4514 19.0277 42.4514C19.4549 42.4514 19.8013 42.1143 19.8013 41.6984C19.8013 41.2825 19.4549 40.9453 19.0277 40.9453ZM16.6896 41.6984C16.6896 40.4414 17.7363 39.4224 19.0277 39.4224C20.3189 39.4224 21.3657 40.4414 21.3657 41.6984C21.3657 42.9553 20.3189 43.9743 19.0277 43.9743C17.7363 43.9743 16.6896 42.9553 16.6896 41.6984ZM27.9732 40.9453C27.546 40.9453 27.1996 41.2825 27.1996 41.6984C27.1996 42.1143 27.546 42.4514 27.9732 42.4514C28.4005 42.4514 28.7469 42.1143 28.7469 41.6984C28.7469 41.2825 28.4005 40.9453 27.9732 40.9453ZM25.6352 41.6984C25.6352 40.4414 26.682 39.4224 27.9732 39.4224C29.2645 39.4224 30.3113 40.4414 30.3113 41.6984C30.3113 42.9553 29.2645 43.9743 27.9732 43.9743C26.682 43.9743 25.6352 42.9553 25.6352 41.6984ZM36.9188 40.946C36.492 40.946 36.146 41.2829 36.146 41.6984C36.146 42.1139 36.492 42.4507 36.9188 42.4507C37.3456 42.4507 37.6917 42.1138 37.6917 41.6984C37.6917 41.2829 37.3456 40.946 36.9188 40.946ZM34.5815 41.6984C34.5815 40.4418 35.6279 39.4232 36.9188 39.4232C38.2096 39.4232 39.2561 40.4418 39.2561 41.6984C39.2561 42.9549 38.2096 43.9736 36.9188 43.9736C35.6279 43.9736 34.5815 42.9549 34.5815 41.6984Z" fill="#ED1C24"/>
</svg>
