<svg width="60" height="60" viewBox="0 0 60 60" fill="none" xmlns="http://www.w3.org/2000/svg">
<path fill-rule="evenodd" clip-rule="evenodd" d="M22.8213 4.75474H29.5402V6.65664H24.741V10.4604H29.5402V12.3623H22.8213V4.75474Z" fill="#ED1C24"/>
<path fill-rule="evenodd" clip-rule="evenodd" d="M24.741 48.5725H26.6607V58.082H43.2843V59.9839H24.741V48.5725Z" fill="#ED1C24"/>
<path fill-rule="evenodd" clip-rule="evenodd" d="M24.741 45.1691V11.6976H26.6607V45.1691H24.741Z" fill="#ED1C24"/>
<path fill-rule="evenodd" clip-rule="evenodd" d="M24.741 0H36.2592V4.75474H38.1789V12.3623H36.2592V22.9369H34.3395V10.4604H36.2592V6.65664H34.3395V1.9019H26.6607V5.70569H24.741V0Z" fill="#ED1C24"/>
<path fill-rule="evenodd" clip-rule="evenodd" d="M43.2843 46.1201H19.9024V44.2182H43.2843V46.1201Z" fill="#ED1C24"/>
<path fill-rule="evenodd" clip-rule="evenodd" d="M43.2843 40.0833H31.362V38.1814H43.2843V40.0833Z" fill="#ED1C24"/>
<path fill-rule="evenodd" clip-rule="evenodd" d="M5.69572 37.9513H7.61541V41.332H10.4978V43.2338H5.69572V37.9513Z" fill="#ED1C24"/>
<path fill-rule="evenodd" clip-rule="evenodd" d="M5.69572 48.057H7.61541V51.4376H10.4978V53.3395H5.69572V48.057Z" fill="#ED1C24"/>
<path fill-rule="evenodd" clip-rule="evenodd" d="M30.1065 33.7225C30.1065 28.6945 34.2202 24.619 39.2952 24.619H44.32C49.395 24.619 53.5086 28.6955 53.5086 33.7225V60H51.5889V33.7225C51.5889 29.7458 48.3346 26.5209 44.32 26.5209H39.2952C35.2804 26.5209 32.0262 29.7449 32.0262 33.7225V59.2126H30.1065V33.7225Z" fill="#ED1C24"/>
<path fill-rule="evenodd" clip-rule="evenodd" d="M44.0617 20.8656C43.3472 20.8656 42.7679 21.44 42.7679 22.1475V22.9006H40.8482V22.1475C40.8482 20.3901 42.2864 18.9637 44.0617 18.9637H54.0278C55.8022 18.9637 57.2404 20.3892 57.2404 22.1475V36.3699H55.3207V22.1475C55.3207 21.439 54.7414 20.8656 54.0278 20.8656H44.0617Z" fill="#ED1C24"/>
<path fill-rule="evenodd" clip-rule="evenodd" d="M56.7874 40.0833H48.4348V38.1814H56.7874C58.5617 38.1814 60 39.6069 60 41.3652V60H58.0803V41.3652C58.0803 40.6567 57.501 40.0833 56.7874 40.0833Z" fill="#ED1C24"/>
<path fill-rule="evenodd" clip-rule="evenodd" d="M0.848766 31.4861C1.44715 30.6867 2.30323 30.3068 3.21261 30.3068H25.3342V32.2087H3.21261C2.87802 32.2087 2.60773 32.3291 2.39072 32.619C2.14904 32.9419 1.91969 33.554 1.91969 34.6146V59.9992H0V34.6146C0 33.3188 0.275057 32.2525 0.848766 31.4861Z" fill="#ED1C24"/>
<path fill-rule="evenodd" clip-rule="evenodd" d="M12.9204 0.0698263L13.4014 0.345744C15.0154 1.27147 16.111 3.00204 16.111 4.99249C16.111 6.98294 15.0163 8.71245 13.4016 9.63911L12.4394 7.99338C13.4892 7.39091 14.1913 6.27329 14.1913 4.99249C14.1913 3.91916 13.6976 2.95983 12.9205 2.32321C12.1424 2.96036 11.6487 3.9193 11.6487 4.99249C11.6487 5.34552 11.7016 5.683 11.7991 6.00025L9.9626 6.55418C9.81053 6.05932 9.72902 5.53525 9.72902 4.99249C9.72902 3.00165 10.825 1.27231 12.4394 0.345852L12.9204 0.0698263Z" fill="#ED1C24"/>
<path fill-rule="evenodd" clip-rule="evenodd" d="M10.0988 11.0471H15.7413L18.9052 32.2086H6.93486L10.0988 11.0471ZM11.755 12.949L9.15985 30.3067H16.6802L14.085 12.949H11.755Z" fill="#ED1C24"/>
</svg>
