<svg width="258" height="55" viewBox="0 0 258 55" fill="none" xmlns="http://www.w3.org/2000/svg">
<path d="M5.28508 -0.000300256H48.5461C51.4561 -0.000300256 53.8293 2.4273 53.8293 5.3976V49.6001C53.8293 52.5685 51.4561 54.9961 48.5461 54.9961H5.28508C2.37508 54.9961 0 52.5685 0 49.6001V5.3976C0 2.4273 2.37508 -0.000300256 5.28508 -0.000300256Z" fill="#EC2026"/>
<path d="M28.5719 23.2465C30.735 23.2465 32.4857 25.0361 32.4857 27.2497C32.4857 29.4555 30.735 31.2432 28.5719 31.2432C26.4108 31.2432 24.6602 29.4555 24.6602 27.2497C24.6602 25.0361 26.4108 23.2465 28.5719 23.2465Z" fill="white"/>
<path d="M35.4206 19.7492C37.1829 19.7492 38.6088 21.2042 38.6088 23.0055C38.6088 24.8028 37.1829 26.2617 35.4206 26.2617C33.6583 26.2617 32.2344 24.8028 32.2344 23.0055C32.2344 21.2042 33.6583 19.7492 35.4206 19.7492Z" fill="white"/>
<path d="M20.363 26.4231C22.1253 26.4231 23.5492 27.88 23.5492 29.6832C23.5492 31.4825 22.1253 32.9414 20.363 32.9414C18.6007 32.9414 17.1826 31.4825 17.1826 29.6832C17.1826 27.88 18.6007 26.4231 20.363 26.4231Z" fill="white"/>
<path d="M23.1143 17.8169C24.9603 17.8169 26.4523 19.3458 26.4523 21.2288C26.4523 23.1117 24.9603 24.6406 23.1143 24.6406C21.2644 24.6406 19.7764 23.1117 19.7764 21.2288C19.7764 19.3458 21.2644 17.8169 23.1143 17.8169Z" fill="white"/>
<path d="M26.8708 32.3869C28.6292 32.3869 30.0551 33.8419 30.0551 35.6432C30.0551 37.4425 28.6292 38.9014 26.8708 38.9014C25.1084 38.9014 23.6807 37.4425 23.6807 35.6432C23.6807 33.8419 25.1084 32.3869 26.8708 32.3869Z" fill="white"/>
<path d="M20.0043 36.9853C22.3307 36.9853 24.2137 38.9111 24.2137 41.29C24.2137 43.6709 22.3307 45.5986 20.0043 45.5986C17.6739 45.5986 15.7871 43.6709 15.7871 41.29C15.7871 38.9111 17.6739 36.9853 20.0043 36.9853Z" fill="white"/>
<path d="M40.9291 35.2734C43.2555 35.2734 45.1443 37.2011 45.1443 39.5781C45.1443 41.9532 43.2555 43.8789 40.9291 43.8789C38.5987 43.8789 36.7119 41.9532 36.7119 39.5781C36.7119 37.2011 38.5987 35.2734 40.9291 35.2734Z" fill="white"/>
<path d="M35.1325 28.5296C37.2839 28.5296 39.0326 30.3153 39.0326 32.5172C39.0326 34.7173 37.2839 36.5068 35.1325 36.5068C32.9773 36.5068 31.2344 34.7173 31.2344 32.5172C31.2344 30.3153 32.9773 28.5296 35.1325 28.5296Z" fill="white"/>
<path d="M14.2472 29.9641C15.6866 29.9641 16.8537 31.1526 16.8537 32.6271C16.8537 34.0937 15.6866 35.2881 14.2472 35.2881C12.8077 35.2881 11.6406 34.0937 11.6406 32.6271C11.6406 31.1526 12.8077 29.9641 14.2472 29.9641Z" fill="white"/>
<path d="M10.8749 35.3395C12.0848 35.3395 13.0574 36.3354 13.0574 37.5648C13.0574 38.798 12.0848 39.7979 10.8749 39.7979C9.66691 39.7979 8.68848 38.798 8.68848 37.5648C8.68848 36.3354 9.66691 35.3395 10.8749 35.3395Z" fill="white"/>
<path d="M10.6059 41.0132C11.4851 41.0132 12.1893 41.7388 12.1893 42.6316C12.1893 43.5264 11.4851 44.25 10.6059 44.25C9.73442 44.25 9.02832 43.5264 9.02832 42.6316C9.02832 41.7388 9.73442 41.0132 10.6059 41.0132Z" fill="white"/>
<path d="M39.2535 13.7005C40.8913 13.7005 42.2238 15.0583 42.2238 16.735C42.2238 18.4137 40.8913 19.7676 39.2535 19.7676C37.604 19.7676 36.2793 18.4137 36.2793 16.735C36.2793 15.0583 37.604 13.7005 39.2535 13.7005Z" fill="white"/>
<path d="M16.7414 14.3146C18.3072 14.3146 19.5794 15.6082 19.5794 17.213C19.5794 18.8139 18.3072 20.1074 16.7414 20.1074C15.1813 20.1074 13.9072 18.8139 13.9072 17.213C13.9072 15.6082 15.1813 14.3146 16.7414 14.3146Z" fill="white"/>
<path d="M10.8978 13.6051C11.9132 13.6051 12.7244 14.4415 12.7244 15.4744C12.7244 16.5054 11.9132 17.3418 10.8978 17.3418C9.89021 17.3418 9.07129 16.5054 9.07129 15.4744C9.07129 14.4415 9.89021 13.6051 10.8978 13.6051Z" fill="white"/>
<path d="M38.4286 8.2965C39.6385 8.2965 40.615 9.2905 40.615 10.5257C40.615 11.757 39.6385 12.7549 38.4286 12.7549C37.2226 12.7549 36.25 11.757 36.25 10.5257C36.25 9.2905 37.2226 8.2965 38.4286 8.2965Z" fill="white"/>
<path d="M126.671 14.2337C124.281 14.2337 124.113 14.3368 122.219 16.8675C120.849 18.6979 109.738 33.4833 109.266 34.1116C108.997 34.4734 108.743 34.8372 108.589 35.0803L108.686 33.5144V17.6689C108.686 15.4105 108.581 14.2337 106.276 14.2337H106.192V38.7275H106.276C108.643 38.7275 108.857 38.6847 110.205 36.8796L123.697 18.8477C123.962 18.4898 124.201 18.1494 124.357 17.9296L124.257 19.7911L124.265 38.7275H126.755V14.2337H126.671Z" fill="#231F21"/>
<path d="M200.792 14.2337C198.402 14.2337 198.238 14.3368 196.34 16.8675C194.943 18.7329 183.504 33.9579 183.391 34.1116C183.116 34.4734 182.864 34.8372 182.712 35.0803L182.811 33.5144V17.6689C182.811 15.4105 182.7 14.2337 180.401 14.2337H180.313V38.7275H180.401C182.768 38.7275 182.976 38.6847 184.326 36.8796L197.822 18.8477C198.081 18.4898 198.324 18.1494 198.478 17.9296L198.382 19.7911L198.386 38.7275H200.878V14.2337H200.792Z" fill="#231F21"/>
<path d="M142.417 14.2337H136.296V38.7275H138.821V16.7994H143.042C146.977 16.7994 148.732 18.3556 148.732 21.8491C148.732 25.7823 145.298 26.7724 143.256 27.0175C142.721 27.0797 140.966 27.426 140.966 29.1922V29.2836H141.05C142.989 29.2836 145.738 28.9568 147.193 28.243C149.762 26.9766 151.181 24.7047 151.181 21.8374C151.181 17.0737 147.905 14.2337 142.417 14.2337Z" fill="#231F21"/>
<path d="M170.715 16.0349C169.196 14.86 167.066 14.2337 164.547 14.2337H158.416V38.7275H160.949V16.8013H165.17C169.103 16.8013 170.859 18.3575 170.859 21.8491C170.859 25.7842 167.428 26.7743 165.38 27.0194C164.845 27.0817 163.092 27.426 163.092 29.1942V29.2856H163.176C165.117 29.2856 167.87 28.9588 169.321 28.243C171.89 26.9766 173.308 24.7047 173.308 21.8374C173.308 19.3184 172.437 17.3713 170.715 16.0349Z" fill="#231F21"/>
<path d="M254.498 17.1872C252.39 14.9814 249.252 13.8162 245.424 13.8162C237.494 13.8162 232.562 18.6403 232.562 26.4035C232.562 34.5014 237.031 39.1484 244.813 39.1484C248.735 39.1484 251.983 38.0163 254.205 35.8844C256.479 33.698 257.679 30.4418 257.679 26.4814C257.679 22.5793 256.576 19.3678 254.498 17.1872ZM244.928 37.5845C242.168 37.5845 239.639 36.3474 237.811 34.1007C236.107 32.0135 235.126 29.1949 235.126 26.3724C235.126 23.4527 236.114 20.7158 237.898 18.6753C239.754 16.5531 242.339 15.3763 245.177 15.3763C247.961 15.3763 250.501 16.5803 252.349 18.7589C254.082 20.8072 255.08 23.6083 255.08 26.4424C255.08 29.4283 254.094 32.2041 252.306 34.2621C250.441 36.4077 247.823 37.5845 244.928 37.5845" fill="#231F21"/>
<path d="M210.288 14.2337H210.196V38.7275H212.694V17.6689C212.694 15.4105 212.581 14.2337 210.288 14.2337Z" fill="#231F21"/>
<path d="M216.85 25.5887L228.72 14.223H228.5C226.045 14.223 225.234 14.5459 223.672 16.1409L214.179 25.4876L214.119 25.5479L224.396 36.7541C225.946 38.497 226.73 38.9658 229.272 38.9658H229.476L216.85 25.5887Z" fill="#231F21"/>
<path d="M96.2416 14.2337C93.8276 14.2337 92.9211 14.2337 92.1723 16.0855C91.9135 16.7255 87.7683 27 85.438 32.7539L84.0044 36.3233L82.6058 32.8783C80.2988 27.1517 76.0894 16.7274 75.8307 16.0855C75.0857 14.2337 74.1753 14.2337 71.7575 14.2337H71.6738V38.7275H74.1637V18.9702L74.115 18.093L74.4807 18.9994L82.7653 38.7275H85.2474L85.2824 38.6206L93.5164 18.9994L93.884 18.1182L93.8354 18.9741V38.7275H96.335V14.2337H96.2416Z" fill="#231F21"/>
<path d="M158.366 48.7632V54.877H159.195V49.4868H161.912V48.7632H158.366Z" fill="#231F21"/>
<path d="M163.963 48.7632H165.968C166.435 48.7632 166.657 48.7827 166.925 48.8508C167.591 49.0141 168.038 49.6424 168.038 50.4341C168.038 50.9204 167.871 51.325 167.565 51.6324C167.172 52.0234 166.694 52.1615 165.76 52.1615H164.786V54.877H163.963V48.7632ZM165.776 51.4495C166.14 51.4495 166.392 51.4126 166.595 51.3387C166.992 51.185 167.159 50.829 167.159 50.4088C167.159 50.119 167.093 49.8934 166.941 49.7319C166.758 49.518 166.488 49.4518 165.947 49.4518H164.786V51.4495H165.776Z" fill="#231F21"/>
<path d="M173.843 48.7632L172.213 52.3871H172.198L170.585 48.7632H169.663L171.781 53.2838L170.902 54.877H171.816L174.779 48.7632H173.843Z" fill="#231F21"/>
<path d="M176.875 48.7632V54.877H177.702V49.4868H180.548V54.877H181.374V48.7632H176.875Z" fill="#231F21"/>
<path d="M183.952 48.7632V54.877H184.777V49.4868H187.619V54.877H188.451V48.7632H183.952Z" fill="#231F21"/>
<path d="M193.009 48.7632L190.48 54.877H191.34L191.982 53.2838H194.76L195.408 54.877H196.306L193.892 48.7632H193.009ZM193.41 49.6055L194.509 52.5972H192.251L193.41 49.6055Z" fill="#231F21"/>
<path d="M205.003 48.7632L202.502 51.4417V48.7632H201.688V54.877H202.502V51.6324L205.266 54.877H206.423L203.457 51.5001L206.133 48.7632H205.003Z" fill="#231F21"/>
<path d="M210.396 48.6383C212.114 48.6383 213.098 49.7645 213.098 51.7681C213.098 53.6141 212.289 55.001 210.308 55.001C208.587 55.001 207.634 53.8844 207.634 51.8614C207.634 49.817 208.659 48.6383 210.396 48.6383ZM210.357 54.2832C211.573 54.2832 212.226 53.4293 212.226 51.7525C212.226 50.1322 211.608 49.3483 210.408 49.3483C209.157 49.3483 208.499 50.1691 208.499 51.8128C208.499 53.4351 209.149 54.2832 210.357 54.2832" fill="#231F21"/>
<path d="M220.226 48.7632L218.495 53.8013L216.805 48.7632H215.338V54.877H216.141V49.409L218.03 54.877H218.816L220.781 49.374V54.877H221.596V48.7632H220.226Z" fill="#231F21"/>
<path d="M224.116 48.7632V54.877H224.945V49.4868H227.783V54.877H228.615V48.7632H224.116Z" fill="#231F21"/>
<path d="M233.072 48.7632L230.553 54.877H231.409L232.051 53.2838H234.828L235.472 54.877H236.375L233.957 48.7632H233.072ZM233.484 49.6055L234.583 52.5972H232.315L233.484 49.6055Z" fill="#231F21"/>
<path d="M242.003 48.7632V51.3912H239.163V48.7632H238.328V54.877H239.163V52.1167H242.003V54.877H242.827V48.7632H242.003Z" fill="#231F21"/>
<path d="M248.926 48.7632L246.16 53.5056H246.132V48.7632H245.308V54.877H246.183L248.949 50.1307H248.974V54.877H249.805V48.7632H248.926Z" fill="#231F21"/>
<path d="M252.28 54.877V48.7613H253.105V53.5056H253.13L255.892 48.7613H256.78V54.877H255.947V50.1326H255.924L253.158 54.877H252.28ZM254.624 47.5475C255.046 47.5475 255.297 47.351 255.402 46.9503H255.807C255.766 47.6953 255.338 48.1135 254.613 48.1135C253.922 48.1135 253.515 47.6953 253.473 46.9503H253.868C253.951 47.3393 254.22 47.5475 254.624 47.5475Z" fill="#231F21"/>
</svg>
