<?xml version="1.0" encoding="utf-8"?>
<!-- Generator: Adobe Illustrator 20.1.0, SVG Export Plug-In . SVG Version: 6.00 Build 0)  -->
<svg version="1.1" id="Capa_1" xmlns="http://www.w3.org/2000/svg" xmlns:xlink="http://www.w3.org/1999/xlink" x="0px" y="0px"
	 viewBox="0 0 280.2 333.9" style="enable-background:new 0 0 280.2 333.9;" xml:space="preserve">
<style type="text/css">
	.st0{fill:#DFDFDF;}
	.st1{fill:#EC1C24;}
</style>
<path class="st0" d="M195.8,0H61.7C42,0,26.1,15.9,26.1,35.5V171h21.8V35.5c0-7.6,6.2-13.8,13.8-13.8l126-0.1v46.5
	c0,13.6,11,24.7,24.7,24.7l45.6-0.1l0.5,205.7c0,7.6-6.2,13.8-13.8,13.8h-183c-7.6,0-13.8-6.2-13.8-13.8v-19.3H26.1v19.3
	c0,19.6,15.9,35.5,35.5,35.5h183c19.6,0,35.5-15.9,35.5-35.5V84.1L195.8,0z"/>
<g>
	<path class="st1" d="M56.7,206c-2.8,0-4.6,0.3-5.6,0.6v17.8c1.2,0.3,2.6,0.3,4.6,0.3c7.2,0,11.7-3.7,11.7-9.8
		C67.3,209.3,63.5,206,56.7,206z"/>
	<path class="st1" d="M109.4,206.2c-3,0-5,0.3-6.2,0.6v39.4c1.2,0.3,3,0.3,4.7,0.3c12.3,0.1,20.4-6.7,20.4-21.1
		C128.4,212.8,121.1,206.2,109.4,206.2z"/>
	<path class="st1" d="M210.2,171.1H39.6H17.8h-3.5c-7.9,0-14.3,6.4-14.3,14.3v79.4c0,7.9,6.4,14.3,14.3,14.3h3.5h21.8h170.6
		c7.9,0,14.3-6.4,14.3-14.3v-79.5C224.5,177.5,218.1,171.1,210.2,171.1z M75.3,228.8c-4.6,4.4-11.5,6.4-19.6,6.4
		c-1.8,0-3.4-0.1-4.6-0.3v21.5H37.6V197c4.2-0.7,10.1-1.2,18.4-1.2c8.4,0,14.4,1.6,18.4,4.8c3.8,3,6.4,8,6.4,13.9
		C80.8,220.4,78.9,225.4,75.3,228.8z M132.8,249.3c-6.4,5.3-16,7.8-27.8,7.8c-7.1,0-12.1-0.4-15.4-0.9V197c5-0.8,11.5-1.2,18.4-1.2
		c11.4,0,18.8,2.1,24.7,6.4c6.2,4.6,10.2,12.1,10.2,22.7C142.8,236.4,138.6,244.4,132.8,249.3z M188.6,207.4h-23.1v13.8h21.6v11.1
		h-21.6v24.2h-13.6v-60.3h36.9L188.6,207.4L188.6,207.4z"/>
</g>
</svg>
